<svg xmlns="http://www.w3.org/2000/svg" width="434" height="42" viewBox="0 0 434 42" fill="none">
  <path d="M210.783 0.910754C183.786 -1.15488 131.196 2.86207 81.335 10.7976L69.565 12.6733C36.4801 17.9547 18.6076 21.6366 5.95028 25.7798C1.01022 27.3972 0.578486 27.6129 0.626226 28.4399C0.698874 29.6467 1.48555 29.5542 10.5842 27.2709C19.9994 24.9081 28.3829 23.3742 51.3148 19.8195C127.958 7.93867 163.56 4.46547 203.073 5.01617C210.816 5.12353 223.051 6.70207 222.968 7.5828C222.857 8.75876 214.797 11.8671 196.244 17.8871C173.42 25.2928 159.474 30.3465 158.155 31.6885C155.9 33.9827 157.945 36.0692 162.765 36.3943C165.519 36.5802 166.151 36.5503 178.948 35.6189C215.688 32.9489 239.084 32.1517 270.656 32.4946C318.735 33.0175 349.241 34.7114 406.391 40.0335C426.926 41.946 427.992 42.0017 431.877 41.3576L431.945 41.3466C433.192 41.1448 433.533 39.5325 432.359 39.0255C429.338 37.7233 427.281 37.4311 409.477 35.7839C349.793 30.261 318.282 28.4677 272.423 27.9886C248.305 27.7361 237.534 27.8733 219.881 28.6586C207.812 29.1954 175.907 31.1378 171.418 31.6079C168.97 31.8654 179.859 28.0045 198.925 21.8563C223.043 14.0779 227.916 11.7677 228.3 7.93469C228.732 3.61257 224.637 1.97041 210.783 0.910754Z" fill="#93C5FD" fill-opacity="0.7"/>
</svg>